<?xml version="1.0" standalone="no"?>
<!DOCTYPE svg PUBLIC "-//W3C//DTD SVG 20010904//EN"
 "http://www.w3.org/TR/2001/REC-SVG-20010904/DTD/svg10.dtd">
<svg version="1.0" xmlns="http://www.w3.org/2000/svg"
 width="856" height="312" viewBox="0 0 856.000000 312.000000"
 preserveAspectRatio="xMidYMid meet">

<g transform="translate(0.000000,312.000000) scale(0.100000,-0.100000)"
fill="currentColor" stroke="none">
<path d="M1271 2735 c-102 -23 -160 -44 -248 -90 -501 -263 -665 -898 -352
-1365 293 -437 872 -555 1312 -267 176 116 288 260 383 496 9 22 12 18 36 -47
145 -393 564 -648 985 -601 273 30 531 183 684 405 33 48 119 223 119 243 0 6
5 11 10 11 6 0 10 -5 10 -11 0 -20 86 -195 119 -243 153 -222 411 -375 684
-405 421 -47 840 208 985 601 24 65 27 69 36 47 39 -96 92 -200 130 -254 336
-469 1004 -536 1423 -141 276 260 371 640 249 999 -98 287 -333 512 -631 603
-84 26 -102 28 -265 28 -162 0 -182 -2 -263 -27 -171 -53 -305 -135 -422 -258
-101 -107 -152 -190 -222 -359 -10 -24 -10 -24 -23 15 -22 67 -85 186 -136
255 -127 173 -311 295 -536 357 -48 14 -102 18 -228 18 -184 0 -254 -14 -395
-79 -226 -105 -431 -330 -495 -543 -7 -24 -16 -43 -20 -43 -4 0 -13 19 -20 43
-64 213 -269 438 -495 543 -141 65 -211 79 -395 79 -126 0 -180 -4 -228 -18
-225 -62 -409 -184 -536 -357 -51 -69 -114 -188 -136 -255 -13 -39 -13 -39
-23 -15 -70 169 -121 252 -222 359 -118 124 -253 207 -422 257 -74 22 -111 27
-238 30 -106 3 -169 -1 -214 -11z m350 -71 c278 -53 502 -224 625 -479 70
-144 87 -228 82 -409 -4 -139 -7 -159 -37 -248 -129 -379 -478 -616 -879 -595
-384 20 -702 281 -799 656 -103 401 98 828 471 1005 69 33 191 70 261 79 74
10 200 6 276 -9z m1799 6 c166 -27 339 -110 457 -220 l47 -45 -637 -3 -637 -2
0 -40 0 -40 510 0 510 0 0 -230 0 -230 50 0 50 0 0 230 0 230 89 0 90 0 3 28
c3 26 5 24 46 -33 55 -77 105 -180 132 -275 30 -103 38 -287 17 -395 -67 -356
-338 -628 -697 -701 -101 -20 -279 -15 -380 11 -271 71 -499 275 -600 537
-178 459 65 978 533 1139 137 47 279 60 417 39z m1830 -1 c157 -25 328 -106
445 -212 365 -330 393 -888 61 -1244 -84 -91 -167 -151 -278 -202 -113 -53
-192 -72 -329 -78 -190 -9 -357 36 -514 139 -462 303 -532 951 -145 1344 199
202 485 298 760 253z m1914 -19 c387 -104 649 -447 648 -850 -2 -467 -359
-843 -824 -867 -401 -21 -750 216 -879 595 -30 89 -33 109 -37 248 -5 181 12
265 82 409 120 249 332 415 606 476 111 25 289 20 404 -11z"/>
<path d="M857 2393 c-4 -3 -7 -21 -7 -40 l0 -33 280 0 280 0 0 -305 0 -305
-310 0 -310 0 0 -40 0 -40 310 0 310 0 0 -251 0 -250 53 3 52 3 3 248 2 247
310 0 310 0 0 40 0 40 -310 0 -310 0 0 305 0 305 275 0 275 0 0 40 0 40 -603
0 c-332 0 -607 -3 -610 -7z"/>
<path d="M1005 2153 c9 -54 63 -209 91 -265 22 -44 27 -48 60 -48 28 0 35 3
30 15 -19 50 -67 219 -77 273 l-12 62 -49 0 -50 0 7 -37z"/>
<path d="M1825 2153 c-10 -60 -42 -182 -65 -247 -11 -33 -20 -61 -20 -63 0 -1
15 -3 34 -3 32 0 35 4 63 68 29 64 93 252 93 272 0 6 -22 10 -50 10 -49 0 -49
0 -55 -37z"/>
<path d="M2780 2059 l0 -151 293 4 c247 3 297 6 323 20 41 22 54 56 54 137 0
126 -33 141 -309 141 -193 0 -217 -5 -244 -48 l-16 -27 -1 38 0 37 -50 0 -50
0 0 -151z m560 52 c15 -29 12 -87 -6 -105 -13 -14 -49 -16 -235 -16 l-219 0 0
48 c0 49 13 71 50 85 8 3 101 6 207 6 180 1 193 0 203 -18z"/>
<path d="M2607 1803 c-4 -3 -7 -21 -7 -40 l0 -33 536 0 535 0 -3 -207 c-3
-226 -8 -248 -61 -287 -40 -30 -133 -26 -216 7 -53 22 -62 23 -59 9 2 -10 42
-37 91 -62 73 -37 99 -45 155 -48 90 -4 128 16 162 83 24 48 25 58 28 278 l3
227 100 0 99 0 0 40 0 40 -678 0 c-373 0 -682 -3 -685 -7z"/>
<path d="M2770 1435 l0 -155 278 -1 c315 -1 307 -2 345 13 42 16 57 55 57 151
0 80 -1 84 -31 113 l-30 29 -231 3 c-210 3 -232 2 -250 -15 -11 -10 -24 -27
-29 -38 -6 -16 -8 -12 -8 18 l-1 37 -50 0 -50 0 0 -155z m559 76 c9 -6 16 -32
19 -68 7 -95 11 -93 -254 -93 l-225 0 3 68 c3 66 4 67 38 84 30 15 64 18 220
18 102 0 191 -4 199 -9z"/>
<path d="M4588 2293 l-3 -188 -72 -3 -73 -3 0 -34 0 -35 75 0 75 0 0 -450 0
-450 50 0 50 0 0 450 0 450 70 0 70 0 0 35 0 35 -70 0 -70 0 0 190 0 190 -50
0 -50 0 -2 -187z"/>
<path d="M5247 2473 c-4 -3 -7 -42 -7 -85 l0 -78 -200 0 -200 0 0 -35 0 -35
200 0 200 0 0 -60 0 -60 -98 0 c-89 0 -100 -2 -119 -22 -12 -13 -23 -32 -26
-43 -3 -11 -5 -1 -6 23 l-1 42 -50 0 -50 0 0 -260 0 -260 50 0 50 0 0 40 0 40
125 0 125 0 0 -35 0 -35 55 0 55 0 0 35 0 35 125 0 125 0 0 -40 0 -40 50 0 50
0 0 203 c0 315 -2 317 -211 317 l-139 0 0 60 0 60 215 0 215 0 0 35 0 35 -75
0 -74 0 -10 38 c-5 20 -13 54 -17 75 -6 37 -6 37 -55 37 -27 0 -49 -4 -49 -10
0 -5 9 -33 20 -62 11 -29 20 -59 20 -65 0 -10 -26 -13 -95 -13 l-95 0 0 85 0
85 -48 0 c-27 0 -52 -3 -55 -7z m-7 -478 l0 -55 -125 0 -125 0 0 33 c0 61 30
75 158 76 l92 1 0 -55z m333 43 c9 -7 19 -32 23 -55 l7 -43 -127 0 -126 0 0
55 0 55 103 0 c67 0 109 -4 120 -12z m-333 -233 l0 -56 -122 3 -123 3 -3 53
-3 52 125 0 126 0 0 -55z m358 3 l-3 -53 -122 -3 -123 -3 0 56 0 55 126 0 125
0 -3 -52z"/>
<path d="M5470 1565 l0 -45 -345 0 -345 0 0 -35 0 -35 345 0 345 0 0 -75 c0
-88 -18 -140 -54 -156 -30 -14 -126 2 -193 31 -61 27 -57 3 8 -49 93 -74 200
-90 274 -40 46 32 63 78 71 194 l7 95 103 0 104 0 0 35 0 35 -105 0 -105 0 0
45 0 45 -55 0 -55 0 0 -45z"/>
<path d="M5006 1300 l48 -90 39 0 c30 0 38 3 34 14 -3 8 -18 49 -33 90 l-27
76 -54 0 -54 0 47 -90z"/>
<path d="M6860 2475 c0 -3 11 -33 25 -67 14 -34 25 -63 25 -64 0 -1 -95 -4
-211 -6 l-211 -3 -24 -28 c-13 -15 -24 -39 -24 -53 0 -24 1 -24 22 -10 20 14
83 16 495 16 536 0 510 4 499 -77 -3 -24 -8 -54 -12 -68 -6 -24 -5 -25 44 -25
28 0 54 5 58 11 14 23 17 138 4 169 -24 59 -49 64 -314 70 l-239 5 -13 40 c-7
22 -15 52 -18 68 -6 25 -10 27 -56 27 -28 0 -50 -2 -50 -5z"/>
<path d="M6320 2215 l0 -125 50 0 50 0 0 125 0 125 -50 0 -50 0 0 -125z"/>
<path d="M6674 2162 c-39 -67 -167 -187 -273 -257 -85 -56 -111 -85 -77 -85 8
0 70 28 137 61 80 40 127 59 135 53 6 -5 27 -21 46 -37 20 -15 75 -49 123 -76
l88 -50 -94 -29 c-100 -31 -347 -94 -441 -112 -46 -9 -58 -15 -58 -30 0 -21
10 -21 210 12 140 22 284 55 407 92 l83 25 72 -25 c146 -50 389 -104 531 -118
l57 -6 0 57 0 58 -77 3 c-93 3 -244 26 -367 54 l-89 20 99 52 c124 65 224 155
224 203 0 61 -9 63 -347 63 -167 0 -303 3 -303 6 0 3 12 25 26 49 l25 44 -23
5 c-87 18 -85 19 -114 -32z m596 -156 c0 -26 -83 -87 -188 -138 -56 -28 -113
-50 -125 -50 -50 0 -301 119 -322 152 -4 6 4 19 17 30 22 18 41 19 321 20 250
0 297 -2 297 -14z"/>
<path d="M6460 1360 l0 -210 388 0 c438 0 492 5 537 50 l30 30 0 118 c0 133
-10 169 -58 198 -30 18 -53 19 -388 19 -333 0 -358 -1 -377 -19 -12 -10 -23
-28 -25 -40 -2 -11 -5 -2 -6 22 l-1 42 -50 0 -50 0 0 -210z m838 118 c8 -8 12
-49 12 -118 0 -69 -4 -110 -12 -118 -9 -9 -106 -12 -375 -12 l-363 0 0 109 c0
162 -29 151 389 151 249 0 340 -3 349 -12z"/>
<path d="M4200 565 c0 -59 -4 -63 -34 -40 -63 47 -136 -15 -136 -114 0 -81 77
-139 142 -107 15 8 28 10 28 5 0 -5 9 -9 20 -9 19 0 20 7 20 160 0 153 -1 160
-20 160 -18 0 -20 -7 -20 -55z m-15 -96 c32 -62 10 -131 -46 -144 -38 -9 -69
33 -69 94 0 54 7 67 40 79 35 13 59 4 75 -29z"/>
<path d="M4430 565 c0 -24 -5 -35 -15 -35 -8 0 -15 -7 -15 -15 0 -8 7 -15 15
-15 12 0 15 -16 15 -88 0 -96 7 -112 52 -112 32 0 37 16 8 25 -18 6 -20 15
-20 91 0 77 2 84 20 84 11 0 20 7 20 15 0 8 -9 15 -20 15 -16 0 -20 7 -20 35
0 28 -4 35 -20 35 -16 0 -20 -7 -20 -35z"/>
<path d="M3702 518 c-19 -19 -22 -20 -22 -5 0 10 -8 17 -20 17 -19 0 -20 -7
-20 -115 0 -108 1 -115 20 -115 18 0 20 7 20 84 0 76 2 86 22 100 12 9 30 16
40 16 11 0 18 8 18 20 0 27 -30 26 -58 -2z"/>
<path d="M3834 529 c-69 -34 -75 -184 -9 -219 41 -22 101 -18 129 9 27 25 34
51 15 51 -6 0 -18 -9 -27 -20 -26 -31 -76 -36 -101 -11 -12 12 -21 30 -21 41
0 18 7 20 85 20 85 0 85 0 85 26 0 85 -82 138 -156 103z m101 -52 c28 -40 20
-47 -50 -47 -57 0 -65 2 -65 18 0 20 25 46 50 54 24 7 49 -3 65 -25z"/>
<path d="M4592 524 c-78 -54 -64 -199 21 -222 50 -14 85 -4 113 33 47 62 31
160 -31 189 -42 20 -75 20 -103 0z m82 -26 c45 -20 56 -117 17 -151 -55 -48
-111 -12 -111 71 0 49 13 71 50 85 8 3 16 6 17 6 1 1 14 -4 27 -11z"/>
<path d="M4860 520 c-16 -16 -20 -17 -20 -5 0 8 -9 15 -20 15 -19 0 -20 -7
-20 -160 0 -153 1 -160 20 -160 18 0 20 7 20 56 0 44 3 54 13 47 43 -34 116
-13 139 40 7 18 13 54 12 81 0 42 -5 53 -32 78 -38 33 -83 37 -112 8z m97 -51
c21 -41 16 -97 -12 -124 -29 -30 -54 -32 -83 -5 -24 23 -31 95 -11 131 23 44
84 42 106 -2z"/>
<path d="M3400 515 c0 -10 16 -15 65 -17 l66 -3 -70 -85 c-39 -47 -70 -91 -71
-97 0 -10 26 -13 100 -13 81 0 100 3 100 15 0 11 -17 15 -71 17 l-72 3 67 82
c36 45 66 89 66 98 0 12 -15 15 -90 15 -72 0 -90 -3 -90 -15z"/>
<path d="M4310 320 c0 -13 7 -20 20 -20 13 0 20 7 20 20 0 13 -7 20 -20 20
-13 0 -20 -7 -20 -20z"/>
</g>
</svg>
