<?xml version="1.0" standalone="no"?>
<!DOCTYPE svg PUBLIC "-//W3C//DTD SVG 20010904//EN"
 "http://www.w3.org/TR/2001/REC-SVG-20010904/DTD/svg10.dtd">
<svg version="1.0" xmlns="http://www.w3.org/2000/svg"
 width="1086.000000" height="358.000000" viewBox="0 0 1086.000000 358.000000"
 preserveAspectRatio="xMidYMid meet">

<g transform="translate(0.000000,358.000000) scale(0.100000,-0.100000)"
fill="currentColor" stroke="none">
<path d="M0 1790 l0 -1790 5430 0 5430 0 0 1790 0 1790 -5430 0 -5430 0 0
-1790z m1740 1139 c100 -15 252 -71 342 -125 96 -58 236 -190 298 -283 37 -56
93 -165 114 -226 6 -16 13 -6 35 50 120 298 377 510 701 577 76 16 120 19 220
15 155 -6 250 -30 385 -97 213 -105 362 -263 461 -488 29 -65 35 -73 40 -54
13 47 86 188 129 247 103 144 274 274 437 334 127 47 178 55 338 55 160 0 211
-8 338 -55 163 -60 334 -190 437 -334 43 -59 116 -200 129 -247 5 -19 11 -11
40 54 99 225 248 383 461 488 135 67 230 91 385 97 100 4 144 1 220 -15 324
-67 581 -279 701 -577 22 -56 29 -66 35 -50 50 140 129 263 244 375 104 102
213 170 347 216 131 45 224 58 363 51 423 -20 768 -303 882 -725 30 -113 31
-324 0 -445 -74 -294 -277 -539 -543 -654 -144 -63 -216 -77 -389 -76 -183 0
-260 16 -410 89 -211 101 -372 267 -465 480 -34 78 -45 97 -45 73 0 -24 -75
-173 -122 -241 -120 -178 -324 -319 -548 -380 -122 -33 -347 -32 -470 1 -303
82 -555 306 -656 585 l-21 60 -13 -40 c-19 -61 -94 -198 -144 -263 -103 -134
-267 -254 -423 -311 -457 -165 -954 26 -1178 453 -23 45 -48 100 -55 121 l-13
40 -21 -60 c-101 -279 -353 -503 -656 -585 -123 -33 -348 -34 -470 -1 -224 61
-428 202 -548 380 -47 68 -122 217 -122 241 0 24 -11 5 -45 -73 -92 -211 -247
-372 -458 -476 -154 -76 -230 -93 -417 -93 -129 -1 -168 3 -234 21 -176 49
-300 118 -429 241 -133 127 -223 283 -269 468 -30 122 -30 333 0 445 101 373
381 639 752 713 80 16 243 18 330 4z m4250 -2141 c54 -28 80 -69 86 -140 6
-62 -22 -128 -69 -162 -41 -30 -144 -30 -184 0 -68 51 -89 157 -47 239 23 45
88 85 139 85 17 0 51 -10 75 -22z m-1630 -11 c0 -14 -37 -68 -95 -140 -52 -65
-95 -120 -95 -122 0 -3 43 -5 95 -5 95 0 95 0 95 -25 l0 -25 -130 0 -130 0 0
24 c0 16 33 67 94 143 l94 118 -87 5 c-80 5 -86 7 -89 28 -3 22 -2 22 122 22
125 0 126 0 126 -23z m256 13 c15 -6 33 -18 40 -28 18 -24 17 -83 -2 -110 -12
-17 -13 -26 -5 -36 7 -8 14 -38 18 -67 3 -30 10 -60 16 -66 11 -15 -11 -27
-40 -21 -14 2 -20 17 -25 63 -4 32 -12 63 -18 69 -5 5 -39 12 -75 14 l-64 4
-3 -73 c-3 -71 -4 -74 -28 -74 l-25 0 -3 155 c-1 85 0 160 2 167 7 16 171 18
212 3z m364 -15 c0 -25 0 -25 -95 -25 l-95 0 0 -45 0 -45 85 0 c84 0 85 0 85
-25 0 -25 -1 -25 -85 -25 l-85 0 0 -50 0 -50 95 0 c95 0 95 0 95 -25 l0 -26
-122 3 -123 3 -3 155 c-1 85 0 160 2 167 4 10 37 13 126 13 l120 0 0 -25z
m256 6 c27 -12 46 -30 57 -54 24 -49 22 -138 -3 -187 -31 -62 -57 -73 -163
-74 l-92 -1 -3 155 c-1 85 0 160 2 167 8 21 152 17 202 -6z m502 -3 c-3 -20
-10 -23 -60 -26 l-58 -3 0 -145 c0 -145 0 -145 -22 -142 -22 3 -23 6 -26 146
l-3 142 -49 0 c-50 0 -66 10 -56 35 4 12 32 15 141 15 136 0 136 0 133 -22z
m616 -7 c47 -45 27 -138 -35 -160 -18 -6 -56 -11 -85 -11 l-54 0 0 -70 c0 -68
-1 -70 -25 -70 l-25 0 0 171 0 171 99 -4 c89 -3 102 -6 125 -27z"/>
<path d="M1490 2849 c-177 -18 -364 -106 -496 -231 -350 -333 -368 -872 -40
-1224 121 -131 287 -224 464 -260 94 -20 306 -14 397 11 92 25 233 97 314 161
228 178 358 492 322 775 -53 416 -363 723 -776 769 -49 5 -94 9 -100 9 -5 -1
-44 -5 -85 -10z m710 -314 l0 -45 -275 0 -275 0 0 -300 0 -300 310 0 310 0 0
-45 0 -45 -310 0 -310 0 0 -245 0 -245 -60 0 -60 0 0 245 0 245 -310 0 -310 0
0 45 0 45 310 0 310 0 0 300 0 300 -275 0 -275 0 0 45 0 45 610 0 610 0 0 -45z
m-956 -242 c9 -49 30 -126 46 -173 17 -47 31 -89 32 -95 2 -5 -15 -11 -38 -13
l-41 -3 -30 68 c-33 74 -77 206 -88 266 l-7 37 54 0 55 0 17 -87z m816 67 c0
-29 -57 -203 -93 -282 l-30 -68 -43 0 -43 0 19 45 c24 55 66 212 76 278 l6 47
54 0 c47 0 54 -3 54 -20z"/>
<path d="M3320 2850 c-103 -13 -188 -38 -287 -85 -78 -38 -216 -135 -250 -177
-9 -11 103 -13 625 -10 l636 2 -35 36 c-157 164 -448 263 -689 234z"/>
<path d="M5140 2849 c-451 -51 -793 -458 -767 -909 11 -180 80 -364 190 -500
l52 -65 3 533 2 532 89 0 90 0 15 73 c8 39 18 89 21 110 l6 37 56 0 55 0 -7
-37 c-4 -21 -17 -71 -30 -110 l-23 -73 87 0 c116 0 150 -17 173 -85 15 -44 17
-100 18 -456 0 -337 -3 -414 -15 -457 -25 -84 -32 -86 -289 -92 l-220 -5 64
-49 c271 -203 632 -234 929 -81 274 142 450 413 468 725 31 531 -436 970 -967
909z m385 -201 c5 -4 -20 -121 -38 -180 l-15 -46 157 -4 c171 -3 202 -12 221
-64 14 -35 12 -846 -1 -904 -12 -53 -49 -104 -89 -125 -40 -21 -120 -19 -180
4 -61 23 -140 85 -140 110 0 16 5 16 50 -7 57 -28 165 -41 198 -23 12 6 30 26
39 44 16 29 18 73 21 442 1 257 -1 416 -7 425 -8 12 -40 16 -159 18 l-149 3
-26 -44 c-28 -47 -134 -151 -185 -180 -32 -18 -32 -18 -32 3 0 12 16 42 36 68
55 72 122 218 149 326 14 54 25 108 25 121 0 12 2 24 5 27 5 5 114 -8 120 -14z
m-45 -693 c15 -60 37 -135 49 -165 11 -30 21 -58 21 -62 0 -5 -17 -8 -39 -8
l-39 0 -37 88 c-31 72 -95 246 -95 259 0 2 25 3 56 1 l56 -3 28 -110z"/>
<path d="M6975 2850 c-213 -24 -389 -112 -542 -273 -89 -93 -151 -198 -193
-325 -29 -84 -34 -114 -38 -227 -10 -273 77 -488 271 -671 97 -92 194 -150
327 -196 93 -32 98 -33 265 -32 159 0 175 2 255 28 151 50 256 114 359 217
227 226 312 564 219 868 -27 90 -97 220 -161 298 -176 218 -482 344 -762 313z
m-325 -375 l0 -185 70 0 70 0 0 -45 0 -45 -70 0 -70 0 -2 -447 -3 -448 -55 0
-55 0 -3 447 -2 447 -73 3 -72 3 0 40 0 40 73 3 72 3 0 184 0 185 60 0 60 0 0
-185z m660 105 l0 -80 91 0 c83 0 90 2 84 18 -4 9 -15 41 -26 70 -21 61 -18
65 52 60 l44 -3 14 -72 13 -73 79 0 79 0 0 -45 0 -45 -215 0 -215 0 0 -49 0
-49 134 -4 c210 -5 214 -11 215 -330 l1 -208 -60 0 -60 0 0 40 0 40 -114 0
-115 0 -3 -32 c-3 -33 -4 -33 -60 -36 l-58 -3 0 36 0 35 -120 0 -120 0 0 -40
0 -40 -55 0 -55 0 0 270 0 270 55 0 c52 0 55 -1 55 -26 0 -24 1 -24 17 -9 26
27 60 35 144 35 l79 0 0 50 0 50 -201 0 -200 0 3 43 3 42 198 3 197 2 0 80 0
80 60 0 60 0 0 -80z m220 -835 l0 -45 110 0 110 0 0 -40 0 -40 -109 0 -109 0
-4 -97 c-6 -160 -49 -215 -168 -214 -72 0 -131 24 -189 76 -45 41 -60 87 -18
61 35 -23 126 -46 179 -46 65 0 80 24 86 136 l5 84 -347 0 -346 0 0 40 0 40
345 0 345 0 0 45 0 45 55 0 55 0 0 -45z m-473 -260 c18 -49 33 -93 33 -97 0
-5 -19 -8 -43 -8 l-43 0 -47 93 c-26 51 -47 96 -47 100 0 4 26 7 57 5 l58 -3
32 -90z"/>
<path d="M7023 2221 c-54 -9 -73 -26 -73 -67 l0 -34 120 0 120 0 0 55 0 55
-62 -1 c-35 -1 -82 -5 -105 -8z"/>
<path d="M7310 2175 l0 -55 116 0 115 0 -3 47 c-3 44 -5 48 -33 54 -16 4 -67
7 -112 8 l-83 1 0 -55z"/>
<path d="M6950 1990 l0 -50 120 0 120 0 0 50 0 50 -120 0 -120 0 0 -50z"/>
<path d="M7310 1990 l0 -50 115 0 115 0 0 50 0 50 -115 0 -115 0 0 -50z"/>
<path d="M8790 2849 c-212 -24 -433 -144 -564 -305 -151 -184 -226 -432 -197
-652 39 -308 215 -557 485 -687 125 -60 190 -76 341 -82 206 -9 355 32 518
141 399 265 507 803 242 1202 -144 216 -378 357 -638 384 -51 5 -96 9 -102 9
-5 -1 -44 -5 -85 -10z m145 -259 l17 -70 235 0 c199 0 240 -3 270 -17 47 -22
67 -70 60 -144 -7 -85 -18 -99 -76 -99 -26 0 -50 2 -53 6 -3 3 0 25 8 50 16
53 9 101 -17 114 -10 6 -197 10 -466 10 -421 0 -451 -1 -486 -19 l-37 -19 0
33 c0 21 9 41 26 58 l26 27 208 2 208 3 -23 55 c-34 78 -33 80 29 80 l54 0 17
-70z m-557 -197 l-3 -128 -55 0 -55 0 -3 128 -3 127 61 0 61 0 -3 -127z m391
-19 c2 -2 -8 -23 -23 -48 l-26 -45 297 -3 c317 -3 337 -6 349 -52 14 -57 -87
-160 -227 -229 l-88 -44 97 -21 c136 -30 212 -42 327 -50 l100 -7 3 -57 3 -58
-43 0 c-100 0 -341 51 -528 112 l-96 31 -104 -31 c-179 -52 -484 -112 -574
-112 -22 0 -27 4 -24 22 3 19 16 24 108 44 117 24 261 61 388 100 l84 26 -78
45 c-44 24 -101 61 -128 82 l-50 37 -115 -57 c-148 -74 -161 -78 -161 -47 0
17 12 30 48 49 114 64 292 228 323 298 l14 32 60 -7 c33 -3 62 -8 64 -10z
m-249 -645 c0 -19 1 -19 16 -5 8 9 25 18 37 21 12 4 178 5 367 3 321 -3 347
-4 377 -22 46 -28 58 -65 58 -186 0 -130 -12 -162 -69 -190 -41 -19 -60 -20
-469 -20 l-427 0 0 210 0 210 55 0 c49 0 55 -2 55 -21z"/>
<path d="M8606 2171 c-19 -21 -18 -23 63 -71 65 -38 213 -100 238 -100 51 0
313 152 313 181 0 5 -122 9 -298 9 -279 0 -300 -1 -316 -19z"/>
<path d="M8585 1663 c-58 -9 -65 -25 -65 -145 l0 -108 354 0 c309 0 357 2 370
16 12 12 16 37 16 112 0 53 -5 104 -10 112 -8 13 -56 15 -322 16 -172 1 -326
-1 -343 -3z"/>
<path d="M2724 2514 c-51 -65 -116 -190 -142 -275 -93 -303 -8 -642 219 -868
103 -103 208 -167 359 -217 80 -26 96 -28 255 -28 167 -1 172 0 265 32 133 46
230 104 327 196 183 172 273 383 273 634 0 126 -17 212 -62 325 -38 93 -121
227 -126 203 -3 -13 -20 -16 -98 -16 l-94 0 0 -235 0 -235 -55 0 -55 0 0 235
0 235 -509 0 -510 0 -3 33 -3 32 -41 -51z m296 -144 l0 -21 22 21 c20 19 34
20 230 20 228 0 262 -6 294 -55 24 -36 24 -154 0 -190 -34 -51 -60 -55 -376
-55 l-290 0 0 150 0 150 60 0 c54 0 60 -2 60 -20z m1080 -420 l0 -40 -100 0
-100 0 0 -213 c0 -236 -9 -289 -56 -338 -41 -43 -112 -56 -194 -35 -80 21
-182 75 -195 104 -10 22 -12 22 -287 22 l-278 0 0 165 0 165 55 0 c53 0 55 -1
55 -27 l0 -26 26 24 c26 24 26 24 247 24 297 0 311 -7 311 -162 0 -95 -18
-131 -72 -148 -18 -5 -32 -12 -32 -16 0 -15 89 -42 155 -46 66 -5 73 -3 103
21 17 15 36 44 42 64 5 20 10 124 10 230 l0 192 -530 0 -530 0 0 40 0 40 685
0 685 0 0 -40z"/>
<path d="M3053 2295 c-32 -13 -33 -16 -33 -70 l0 -56 215 3 c237 3 235 3 235
66 0 72 0 72 -203 72 -134 -1 -191 -5 -214 -15z"/>
<path d="M3035 1678 c-30 -17 -35 -28 -35 -91 l0 -58 225 3 c254 3 245 0 245
80 0 83 13 78 -214 78 -131 -1 -208 -5 -221 -12z"/>
<path d="M4730 2150 l0 -210 160 0 160 0 0 198 c0 141 -3 201 -12 210 -8 8
-58 12 -160 12 l-148 0 0 -210z"/>
<path d="M4730 1645 l0 -215 148 0 c102 0 152 4 160 12 9 9 12 70 12 215 l0
203 -160 0 -160 0 0 -215z"/>
<path d="M5859 745 c-36 -20 -52 -64 -47 -131 6 -76 39 -109 104 -108 55 1 91
32 104 90 9 39 8 56 -12 107 -20 51 -94 72 -149 42z"/>
<path d="M4460 705 l0 -55 58 0 c71 0 105 20 100 58 -4 35 -39 52 -105 52
l-53 0 0 -55z"/>
<path d="M5090 636 l0 -126 44 0 c89 0 126 37 126 124 0 85 -28 114 -116 123
l-54 6 0 -127z"/>
<path d="M6180 705 l0 -55 59 0 c68 0 94 17 89 59 -4 33 -39 51 -100 51 l-48
0 0 -55z"/>
</g>
</svg>
